<svg width="60" height="60" viewBox="0 0 60 60" fill="none" xmlns="http://www.w3.org/2000/svg">
<path fill-rule="evenodd" clip-rule="evenodd" d="M3.75 30C3.75 44.4975 15.5025 56.25 30 56.25C44.4975 56.25 56.25 44.4975 56.25 30C56.25 15.5025 44.4975 3.75 30 3.75C15.5025 3.75 3.75 15.5025 3.75 30ZM60 30C60 46.5685 46.5685 60 30 60C13.4315 60 0 46.5685 0 30C0 13.4315 13.4315 0 30 0C46.5685 0 60 13.4315 60 30ZM43.125 28.125C44.1605 28.125 45 28.9645 45 30C45 31.0355 44.1605 31.875 43.125 31.875H21.4017L29.4508 39.9242C30.1831 40.6564 30.1831 41.8436 29.4508 42.5758C28.7186 43.3081 27.5314 43.3081 26.7992 42.5758L15.5492 31.3258C14.8169 30.5936 14.8169 29.4064 15.5492 28.6742L26.7992 17.4242C27.5314 16.6919 28.7186 16.6919 29.4508 17.4242C30.1831 18.1564 30.1831 19.3436 29.4508 20.0758L21.4017 28.125H43.125Z" fill="#247A0A"/>
</svg>
