<svg width="100" height="100" viewBox="0 0 100 100" fill="none" xmlns="http://www.w3.org/2000/svg">
<circle cx="50" cy="50" r="50" fill="#247A0A"/>
<path d="M50 23.4961L48.6561 22.0227C45.4979 18.5601 39.714 19.7554 37.6257 24.1057C36.7208 25.9906 36.4621 28.6456 37.828 32H35.8067C31.8162 20.6057 43.6147 14.3404 49.6706 20.2862C49.7824 20.3959 49.8922 20.5099 50 20.628C50.1077 20.5099 50.2176 20.3959 50.3294 20.2862C56.3853 14.3404 68.1838 20.6057 64.1933 32H62.172C63.5379 28.6456 63.2792 25.9906 62.3743 24.1057C60.286 19.7554 54.5021 18.5601 51.3439 22.0227L50 23.4961Z" fill="white"/>
<path d="M39.1476 38H41.613C43.612 40.3665 46.3462 42.9158 50 45.5892C53.6538 42.9158 56.388 40.3665 58.387 38H60.8524C58.48 41.1329 54.9656 44.5002 50 48C45.0344 44.5002 41.52 41.1329 39.1476 38Z" fill="white"/>
<path d="M54.6204 24.6286C54.4716 24.2316 54.1025 23.9795 53.7021 24.0013C53.3017 24.0231 52.9587 24.3141 52.8486 24.7253L49.852 35.9126L47.1204 28.6286C46.9911 28.2838 46.6934 28.0438 46.3471 28.0054C46.0008 27.9669 45.6631 28.1363 45.47 28.4453L41.9983 34H35.9375C35.4197 34 35 34.4477 35 35C35 35.5523 35.4197 36 35.9375 36H42.5C42.8135 36 43.1062 35.8329 43.28 35.5547L46.0415 31.1365L49.1296 39.3714C49.2784 39.7684 49.6475 40.0205 50.0479 39.9987C50.4483 39.9769 50.7913 39.6859 50.9014 39.2747L53.898 28.0874L56.6296 35.3714C56.7719 35.751 57.1167 36 57.5 36H64.0625C64.5803 36 65 35.5523 65 35C65 34.4477 64.5803 34 64.0625 34H58.1347L54.6204 24.6286Z" fill="white"/>
<path d="M13.1953 75L14.5234 67H16.2148L15.668 70.3008H19.1016L19.6484 67H21.3359L20.0078 75H18.3203L18.8672 71.6953H15.4336L14.8867 75H13.1953ZM21.4023 75L22.7305 67H28.1211L27.8867 68.3945H24.1875L23.875 70.3008H27.2969L27.0625 71.6953H23.6406L23.3281 73.6055H27.043L26.8086 75H21.4023ZM29.5166 75H27.7041L31.7939 67H33.9736L35.4033 75H33.5908L32.6182 68.8281H32.5557L29.5166 75ZM29.9307 71.8555H34.2119L33.9854 73.1758H29.7041L29.9307 71.8555ZM36.3662 75L37.6943 67H39.3857L38.292 73.6055H41.7217L41.4873 75H36.3662ZM42.3975 68.3945L42.6318 67H49.2021L48.9678 68.3945H46.5186L45.4248 75H43.7529L44.8467 68.3945H42.3975ZM48.9561 75L50.2842 67H51.9756L51.4287 70.3008H54.8623L55.4092 67H57.0967L55.7686 75H54.0811L54.6279 71.6953H51.1943L50.6475 75H48.9561ZM67.623 69.8008H65.9355C65.9408 69.5768 65.9121 69.3789 65.8496 69.207C65.7871 69.0326 65.6934 68.8841 65.5684 68.7617C65.446 68.6393 65.2962 68.5469 65.1191 68.4844C64.9421 68.4193 64.7428 68.3867 64.5215 68.3867C64.0944 68.3867 63.7025 68.4935 63.3457 68.707C62.9889 68.9206 62.6882 69.2305 62.4434 69.6367C62.1986 70.0404 62.0293 70.5286 61.9355 71.1016C61.8444 71.6536 61.8496 72.1159 61.9512 72.4883C62.0527 72.8607 62.2324 73.1419 62.4902 73.332C62.7507 73.5195 63.0749 73.6133 63.4629 73.6133C63.7025 73.6133 63.9303 73.5833 64.1465 73.5234C64.3626 73.4609 64.5592 73.3724 64.7363 73.2578C64.916 73.1406 65.0723 72.9987 65.2051 72.832C65.3405 72.6654 65.446 72.4766 65.5215 72.2656H67.2207C67.1139 72.6328 66.9473 72.987 66.7207 73.3281C66.4967 73.6693 66.2194 73.974 65.8887 74.2422C65.5579 74.5078 65.1816 74.7187 64.7598 74.875C64.3379 75.0312 63.8757 75.1094 63.373 75.1094C62.6465 75.1094 62.0228 74.9427 61.502 74.6094C60.9837 74.276 60.61 73.7956 60.3809 73.168C60.1517 72.5404 60.1087 71.7839 60.252 70.8984C60.3952 70.0417 60.6751 69.3151 61.0918 68.7187C61.5111 68.1198 62.0202 67.6654 62.6191 67.3555C63.2207 67.0456 63.8639 66.8906 64.5488 66.8906C65.0254 66.8906 65.4564 66.9557 65.8418 67.0859C66.2272 67.2161 66.5553 67.4062 66.8262 67.6562C67.0996 67.9036 67.3053 68.207 67.4434 68.5664C67.5814 68.9258 67.6413 69.3372 67.623 69.8008ZM69.209 75H67.3965L71.4863 67H73.666L75.0957 75H73.2832L72.3105 68.8281H72.248L69.209 75ZM69.623 71.8555H73.9043L73.6777 73.1758H69.3965L69.623 71.8555ZM76.0586 75L77.3867 67H80.543C81.1471 67 81.6445 67.1068 82.0352 67.3203C82.4284 67.5339 82.7044 67.8372 82.8633 68.2305C83.0247 68.6211 83.0625 69.082 82.9766 69.6133C82.888 70.1445 82.6966 70.6003 82.4023 70.9805C82.1107 71.3607 81.7305 71.6536 81.2617 71.8594C80.7956 72.0625 80.2552 72.1641 79.6406 72.1641H77.5273L77.7617 70.8047H79.5977C79.9206 70.8047 80.1966 70.7604 80.4258 70.6719C80.6549 70.5833 80.8359 70.4505 80.9688 70.2734C81.1042 70.0964 81.1927 69.8763 81.2344 69.6133C81.2786 69.3451 81.263 69.1211 81.1875 68.9414C81.112 68.7591 80.9753 68.6211 80.7773 68.5273C80.5794 68.431 80.319 68.3828 79.9961 68.3828H78.8555L77.75 75H76.0586ZM80.9805 71.3594L82.3672 75H80.5L79.1563 71.3594H80.9805ZM83.3418 75L84.6699 67H90.0605L89.8262 68.3945H86.127L85.8145 70.3008H89.2363L89.002 71.6953H85.5801L85.2676 73.6055H88.9824L88.748 75H83.3418Z" fill="white"/>
</svg>
