<svg width="70" height="70" viewBox="0 0 70 70" fill="none" xmlns="http://www.w3.org/2000/svg">
<path d="M48.125 26.25C48.125 33.4987 42.2487 39.375 35 39.375C27.7513 39.375 21.875 33.4987 21.875 26.25C21.875 19.0013 27.7513 13.125 35 13.125C42.2487 13.125 48.125 19.0013 48.125 26.25Z" fill="#247A0A"/>
<path fill-rule="evenodd" clip-rule="evenodd" d="M0 35C0 15.67 15.67 0 35 0C54.33 0 70 15.67 70 35C70 54.33 54.33 70 35 70C15.67 70 0 54.33 0 35ZM35 4.375C18.0863 4.375 4.375 18.0863 4.375 35C4.375 42.2338 6.883 48.8817 11.0769 54.1218C14.1878 49.1104 21.0203 43.75 35 43.75C48.9798 43.75 55.8122 49.1105 58.9231 54.1218C63.117 48.8817 65.625 42.2337 65.625 35C65.625 18.0863 51.9137 4.375 35 4.375Z" fill="#247A0A"/>
</svg>
